<svg aria-hidden="true" style="position: absolute; width: 0; height: 0; overflow: hidden;" version="1.1" xmlns="http://www.w3.org/2000/svg" xmlns:xlink="http://www.w3.org/1999/xlink">
<defs>
<symbol id="icon-sublimetext" viewBox="0 0 32 32">
<title>sublimetext</title>
<path d="M16 27.888h12.697c0.797 0 1.459-0.452 1.459-1v-2.561c-0.333 0.335-0.861 0.544-1.459 0.544h-25.392c-0.593 0-1.121-0.209-1.46-0.54v2.553c0 0.551 0.653 1 1.46 1l12.695 0.004zM16 29.825h13.924c1.145 0 2.076-0.688 2.076-1.531 0-0.067-0.011-0.133-0.021-0.197l-2.14-22.68c-0.068-0.531-0.473-0.953-0.927-1.128l1.621 19.208v3.391c0 0.759-0.82 1.379-1.841 1.379h-25.385c-1.011 0-1.836-0.625-1.836-1.379v-3.391l1.617-19.208c-0.453 0.177-0.86 0.6-0.927 1.129l-2.141 22.672c-0.016 0.068-0.020 0.129-0.020 0.2 0 0.84 0.927 1.535 2.075 1.535h13.925zM28.511 3.953l-0.039-0.42c0-0.028 0-0.049-0.005-0.081l-0.008-0.093c-0.081-0.672-0.633-1.187-1.443-1.187h-22.036c-0.805 0-1.355 0.512-1.44 1.18l-0.004 0.101-0.004 0.080-0.040 0.419-1.64 19.548c0 0.549 0.652 1 1.456 1h25.393c0.803 0 1.453-0.451 1.459-1l-1.649-19.547zM20.929 16.361c-0.355 0.931-1.171 1.595-2.060 2-0.967 0.444-2.047 0.616-3.109 0.632-1.125 0.016-2.26-0.1-3.356-0.36-0.555-0.125-1.129-0.276-1.655-0.505-0.472-0.207-0.86-0.675-0.849-1.205 0.011-0.539 0.399-0.988 0.892-1.184 0.516-0.205 1.012-0.12 1.516 0.060 1.12 0.387 2.308 0.548 3.492 0.508 0.673-0.020 1.853-0.38 1.664-1.423-0.040-0.231-0.225-0.555-0.46-0.773-0.184-0.183-0.571-0.361-0.82-0.427-0.552-0.151-1.12-0.264-1.68-0.385-1.128-0.248-1.729-0.435-2.729-1.041-0.881-0.525-1.071-0.864-1.207-1.653-0.177-1.033 0.328-1.852 1.16-2.479 1.86-1.413 3.643-1.364 5.841-0.961 0.539 0.1 1.185 0.191 1.659 0.479 0.467 0.281 0.728 0.849 0.527 1.377-0.188 0.5-0.664 0.576-1.18 0.52-0.555-0.059-0.781-0.205-1.305-0.304-1.096-0.2-1.5-0.368-2.555-0.068-0.419 0.12-0.987 0.519-0.773 1.043 0.18 0.433 0.841 0.575 1.236 0.681 1.084 0.289 1.931 0.623 3.009 0.94 1.012 0.295 1.779 0.855 2.409 1.745 0.561 0.795 0.681 1.888 0.341 2.793l-0.005-0.007-0.003-0.003z"></path>
</symbol>
<symbol id="icon-amazonaws" viewBox="0 0 32 32">
<title>amazonaws</title>
<path d="M9.017 13.381c0 0.395 0.043 0.713 0.117 0.947 0.085 0.235 0.192 0.491 0.341 0.768 0.053 0.084 0.075 0.169 0.075 0.244 0 0.107-0.064 0.213-0.203 0.32l-0.671 0.447c-0.077 0.056-0.173 0.091-0.276 0.096l-0.001 0c-0.107 0-0.213-0.053-0.319-0.149-0.138-0.148-0.264-0.312-0.375-0.486l-0.008-0.014c-0.098-0.162-0.208-0.368-0.309-0.579l-0.021-0.049c-0.829 0.979-1.873 1.468-3.129 1.468-0.893 0-1.607-0.255-2.128-0.765-0.521-0.512-0.787-1.192-0.787-2.044 0-0.904 0.319-1.64 0.968-2.192 0.649-0.553 1.511-0.831 2.607-0.831 0.363 0 0.735 0.032 1.128 0.085 0.395 0.053 0.8 0.139 1.224 0.235v-0.777c0-0.809-0.169-1.373-0.5-1.703-0.34-0.331-0.915-0.489-1.733-0.489-0.373 0-0.757 0.041-1.151 0.137s-0.777 0.213-1.149 0.363c-0.101 0.047-0.224 0.094-0.352 0.133l-0.022 0.006c-0.050 0.017-0.108 0.028-0.168 0.031l-0.002 0c-0.149 0-0.224-0.107-0.224-0.329v-0.521c0-0.171 0.021-0.299 0.075-0.373 0.080-0.095 0.18-0.171 0.294-0.221l0.005-0.002c0.372-0.192 0.819-0.352 1.34-0.48 0.48-0.128 1.032-0.202 1.601-0.202 0.021 0 0.043 0 0.064 0l-0.003-0c1.267 0 2.192 0.288 2.788 0.863 0.585 0.573 0.883 1.447 0.883 2.617v3.448zM4.697 15c0.351 0 0.712-0.064 1.096-0.192 0.383-0.128 0.724-0.361 1.011-0.68 0.171-0.203 0.299-0.427 0.363-0.683 0.063-0.255 0.107-0.564 0.107-0.925v-0.447c-0.264-0.069-0.597-0.132-0.935-0.177l-0.045-0.005c-0.3-0.040-0.647-0.063-0.999-0.064h-0.001c-0.713 0-1.235 0.139-1.587 0.427-0.351 0.287-0.52 0.691-0.52 1.223 0 0.5 0.127 0.873 0.393 1.128 0.255 0.267 0.627 0.395 1.117 0.395zM13.244 16.149c-0.192 0-0.32-0.032-0.405-0.107-0.085-0.064-0.16-0.213-0.224-0.415l-2.5-8.228c-0.045-0.124-0.079-0.269-0.095-0.418l-0.001-0.008c0-0.171 0.085-0.267 0.255-0.267h1.044c0.201 0 0.34 0.033 0.413 0.107 0.087 0.064 0.151 0.213 0.213 0.416l1.789 7.045 1.66-7.045c0.053-0.213 0.117-0.352 0.201-0.416 0.109-0.068 0.241-0.108 0.383-0.108 0.015 0 0.031 0 0.046 0.001l-0.002-0h0.851c0.203 0 0.341 0.033 0.427 0.107 0.084 0.064 0.16 0.213 0.201 0.416l1.681 7.131 1.841-7.131c0.064-0.213 0.139-0.352 0.213-0.416 0.105-0.068 0.234-0.108 0.372-0.108 0.015 0 0.030 0 0.045 0.001l-0.002-0h0.991c0.169 0 0.267 0.087 0.267 0.267 0 0.053-0.012 0.107-0.023 0.171-0.019 0.102-0.045 0.191-0.078 0.277l0.004-0.010-2.564 8.227c-0.064 0.213-0.139 0.351-0.224 0.415-0.104 0.067-0.231 0.108-0.367 0.108-0.013 0-0.026-0-0.039-0.001l0.002 0h-0.916c-0.201 0-0.34-0.032-0.427-0.107-0.084-0.075-0.159-0.213-0.2-0.427l-1.651-6.864-1.64 6.853c-0.053 0.213-0.116 0.352-0.2 0.427-0.087 0.075-0.236 0.107-0.427 0.107zM26.919 16.436c-0.553 0-1.107-0.064-1.639-0.191-0.532-0.128-0.947-0.267-1.224-0.427-0.171-0.095-0.287-0.201-0.329-0.297-0.040-0.088-0.063-0.19-0.064-0.298v-0.543c0-0.223 0.085-0.329 0.244-0.329 0.064 0 0.128 0.011 0.192 0.032s0.16 0.064 0.267 0.107c0.361 0.16 0.755 0.287 1.171 0.372 0.425 0.085 0.84 0.128 1.267 0.128 0.669 0 1.192-0.117 1.553-0.352 0.334-0.204 0.554-0.567 0.554-0.981 0-0.010-0-0.021-0-0.031l0 0.002c0-0.009 0-0.019 0-0.030 0-0.278-0.109-0.53-0.287-0.716l0 0c-0.192-0.201-0.555-0.383-1.076-0.553l-1.543-0.48c-0.777-0.244-1.352-0.605-1.703-1.084-0.33-0.422-0.53-0.959-0.533-1.543v-0.001c0-0.447 0.097-0.84 0.288-1.181 0.192-0.34 0.447-0.639 0.767-0.872 0.32-0.245 0.68-0.427 1.107-0.553 0.427-0.128 0.873-0.181 1.341-0.181 0.233 0 0.479 0.011 0.713 0.043 0.244 0.032 0.467 0.075 0.691 0.117 0.213 0.053 0.416 0.107 0.607 0.169 0.192 0.064 0.341 0.128 0.448 0.192 0.128 0.065 0.235 0.155 0.318 0.264l0.002 0.002c0.060 0.089 0.096 0.199 0.096 0.317 0 0.012-0 0.024-0.001 0.035l0-0.002v0.5c0 0.224-0.085 0.341-0.245 0.341-0.151-0.018-0.287-0.063-0.41-0.131l0.006 0.003c-0.579-0.262-1.255-0.415-1.968-0.415-0.026 0-0.053 0-0.079 0.001l0.004-0c-0.607 0-1.087 0.095-1.416 0.297-0.331 0.203-0.5 0.511-0.5 0.947 0 0.299 0.107 0.555 0.32 0.756 0.212 0.203 0.605 0.405 1.169 0.587l1.512 0.477c0.765 0.245 1.32 0.587 1.649 1.023s0.489 0.936 0.489 1.489c0 0.457-0.096 0.873-0.276 1.235-0.192 0.363-0.448 0.681-0.777 0.937-0.331 0.267-0.724 0.457-1.181 0.596-0.48 0.148-0.979 0.223-1.523 0.223zM28.931 21.609c-3.501 2.587-8.589 3.959-12.963 3.959-6.131 0-11.653-2.267-15.827-6.035-0.329-0.297-0.032-0.703 0.363-0.468 4.512 2.617 10.079 4.204 15.836 4.204 3.885 0 8.152-0.809 12.080-2.469 0.585-0.267 1.085 0.383 0.511 0.809zM30.389 19.948c-0.448-0.573-2.96-0.276-4.099-0.137-0.34 0.043-0.393-0.256-0.084-0.48 2-1.404 5.289-1 5.672-0.532 0.383 0.48-0.107 3.768-1.98 5.343-0.287 0.245-0.564 0.117-0.436-0.201 0.427-1.053 1.373-3.427 0.927-3.992z"></path>
</symbol>
<symbol id="icon-googlechrome" viewBox="0 0 32 32">
<title>googlechrome</title>
<path fill="#4285f4" style="fill: var(--color1, #4285f4)" d="M21.619 11.587l8.953-2.239c0.902 1.943 1.428 4.217 1.428 6.615v0c0 8.797-7.241 16.037-16.043 16.037-0.403 0-0.807-0.015-1.209-0.045l6.54-11.129c0.475-0.501 0.873-1.071 1.175-1.695 0.44-0.909 0.697-1.978 0.697-3.106 0-1.175-0.279-2.284-0.774-3.266l0.019 0.042c-0.237-0.462-0.498-0.859-0.797-1.226l0.010 0.013zM17.299 23.020l-2.828 8.909c-8.153-0.803-14.471-7.743-14.471-15.96 0-3.18 0.945-6.289 2.717-8.931l6.445 11.169c0.24 0.719 1.492 3.441 4.089 4.436 1.331 0.509 2.721 0.641 4.047 0.376zM15.964 10.16c-2.675 0.025-5.171 2.059-5.708 4.683-0.070 0.344-0.11 0.739-0.11 1.143 0 1.654 0.673 3.151 1.76 4.233l0 0c1.619 1.581 4.187 2.104 6.312 1.236 1.877-0.768 3.293-2.569 3.588-4.575 0.363-2.475-1.051-5.109-3.327-6.172-0.727-0.346-1.58-0.548-2.48-0.548-0.012 0-0.024 0-0.037 0h0.002zM9.395 13.283l-6.383-6.665c2.952-4.029 7.666-6.615 12.984-6.617h0c6.080 0 11.659 3.456 14.365 8.9h-13.617c-2.415-0.167-4.384 0.693-5.687 1.937-0.702 0.675-1.265 1.489-1.645 2.398l-0.017 0.047z"></path>
</symbol>
<symbol id="icon-powershell" viewBox="0 0 32 32">
<title>powershell</title>
<path fill="#5391fe" style="fill: var(--color2, #5391fe)" d="M30.908 4.103c0.757 0 1.231 0.617 1.056 1.38l-4.879 21.308c-0.173 0.763-0.929 1.38-1.687 1.38h-24.307c-0.757 0-1.231-0.617-1.056-1.38l4.879-21.308c0.173-0.763 0.929-1.38 1.687-1.38h24.307zM19.741 16.563c0.335-0.525 0.303-1.207-0.12-1.657l-7.459-7.935c-0.507-0.54-1.383-0.543-1.955-0.005s-0.624 1.409-0.117 1.948l6.216 6.613v0.147l-9.893 7.164c-0.6 0.436-0.711 1.303-0.249 1.937s1.321 0.796 1.92 0.36l10.972-7.879c0.373-0.263 0.584-0.488 0.685-0.693zM16.013 22.428c-0.002-0-0.005-0-0.008-0-0.681 0-1.234 0.55-1.237 1.23v0c0 0.68 0.557 1.231 1.245 1.231h5.911c0.002 0 0.005 0 0.008 0 0.681 0 1.234-0.55 1.237-1.23v-0c-0.004-0.68-0.556-1.231-1.237-1.231-0.003 0-0.006 0-0.008 0h-5.91z"></path>
</symbol>
<symbol id="icon-git" viewBox="0 0 32 32">
<title>git</title>
<path fill="#f05032" style="fill: var(--color3, #f05032)" d="M31.395 14.573l-13.972-13.971c-0.805-0.804-2.109-0.804-2.917 0l-2.895 2.9 3.68 3.68c0.86-0.287 1.839-0.093 2.519 0.588 0.688 0.687 0.877 1.677 0.584 2.533l3.544 3.547c0.86-0.297 1.849-0.104 2.533 0.58 0.961 0.96 0.961 2.512 0 3.472-0.959 0.959-2.508 0.959-3.467 0-0.719-0.721-0.899-1.783-0.539-2.661l-3.319-3.301v8.7c0.235 0.115 0.456 0.271 0.651 0.464 0.951 0.961 0.951 2.511 0 3.467-0.959 0.961-2.519 0.961-3.479 0-0.959-0.959-0.959-2.505 0-3.464 0.243-0.24 0.516-0.421 0.807-0.541v-8.785c-0.289-0.121-0.565-0.296-0.8-0.535-0.727-0.727-0.901-1.789-0.528-2.679l-3.616-3.633-9.581 9.575c-0.8 0.807-0.8 2.112 0 2.919l13.973 13.969c0.805 0.805 2.109 0.805 2.915 0l13.907-13.907c0.807-0.804 0.807-2.109 0-2.916z"></path>
</symbol>
<symbol id="icon-hackster" viewBox="0 0 32 32">
<title>hackster</title>
<path fill="#1bacf7" style="fill: var(--color4, #1bacf7)" d="M24.567 13.799c0.349 0 0.64 0.279 0.64 0.639v2.873c0 0.427 0.347 0.776 0.773 0.776h5.68c0.393 0 0.473 0.568 0.091 0.672l-11.424 3.291c-0.331 0.097-0.679-0.091-0.775-0.423-0.017-0.057-0.028-0.117-0.025-0.177v-3.003c-0.003-0.153-0.125-0.279-0.279-0.28h-12.525c-0.152-0.001-0.276-0.124-0.279-0.276v-3.373c0.001-0.471-0.373-0.857-0.845-0.867l-5.331-0.093c-0.313-0.013-0.371-0.453-0.069-0.544l11.68-3.372c0.148-0.039 0.3 0.049 0.339 0.195 0.005 0.021 0.009 0.044 0.009 0.071v3.255c0 0.347 0.289 0.637 0.639 0.637h11.701zM11.717 6.057c0.407-0.069 0.5 0.464 0.5 0.464s0.033 1.263 0 1.784c-0.036 0.52-0.511 0.5-0.511 0.5h-4.635s-0.42-0.151-0.476-0.696c-0.071-0.544 0.579-0.848 0.579-0.848s4.139-1.135 4.54-1.204h0.003zM19.564 4.585s-0.060-0.615 0.628-0.88c0.683-0.255 4.357-1.205 4.357-1.205s0.683-0.267 0.729 0.628c0.047 0.891 0 8.237 0 8.237s0.024 0.601-0.625 0.648c-0.651 0.047-4.3 0-4.3 0s-0.789 0.071-0.789-0.556v-6.872zM19.668 23.695c0.033-0.521 0.511-0.5 0.5-0.512h4.633s0.407 0.151 0.476 0.696c0.071 0.544-0.581 0.847-0.581 0.847s-4.136 1.135-4.541 1.203c-0.407 0.083-0.487-0.452-0.487-0.452s-0.033-1.26 0-1.781zM12.311 27.415s0.068 0.615-0.628 0.88c-0.684 0.253-4.357 1.204-4.357 1.204s-0.685 0.268-0.729-0.627c-0.047-0.891 0-8.237 0-8.237s-0.024-0.601 0.625-0.648 4.3 0 4.3 0 0.705-0.071 0.789 0.556c0.079 0.613 0 1.053 0 1.053v5.819z"></path>
</symbol>
<symbol id="icon-atom" viewBox="0 0 32 32">
<title>atom</title>
<path fill="#66595c" style="fill: var(--color5, #66595c)" d="M27.328 12.035c-2.911-1.24-6.821-2.040-11-2.26-0.667-0.040-1.316-0.053-1.933-0.053 3.091-3.773 6.403-6.307 8.583-6.387 0.429-0.017 0.793 0.073 1.084 0.261 0.941 0.611 1.207 2.357 0.727 4.787-0.053 0.333 0.16 0.657 0.48 0.72 0.333 0.067 0.653-0.147 0.72-0.48 0.6-3.040 0.16-5.128-1.253-6.051-0.507-0.331-1.12-0.487-1.8-0.461-2.733 0.103-6.587 3.067-10.12 7.627-1.539 0.047-2.987 0.173-4.309 0.383-0.861-3.863-0.52-6.636 0.792-7.303 0.184-0.097 0.38-0.147 0.609-0.165 0.929-0.072 2.213 0.527 3.613 1.693 0.259 0.213 0.648 0.187 0.861-0.080 0.217-0.26 0.179-0.64-0.080-0.86-1.68-1.392-3.229-2.072-4.496-1.979-0.381 0.033-0.741 0.131-1.071 0.293-1.587 0.809-2.227 3.103-1.827 6.451 0.093 0.693 0.213 1.416 0.387 2.16-4.375 0.875-7.161 2.627-7.281 4.832-0.080 1.56 1.153 3.045 3.573 4.296 0.299 0.153 0.669 0.040 0.827-0.267 0.152-0.299 0.040-0.667-0.267-0.821-1.933-0.995-2.973-2.117-2.911-3.144 0.067-1.44 2.363-2.92 6.347-3.707 0.36 1.325 0.827 2.709 1.4 4.12-1.357 2.517-2.341 4.996-2.849 7.2-0.747 3.287-0.347 5.627 1.147 6.597 0.48 0.312 1.040 0.467 1.663 0.467 1.247 0 2.756-0.613 4.463-1.829 0.28-0.2 0.341-0.58 0.147-0.853-0.196-0.275-0.577-0.341-0.853-0.141-2.059 1.471-3.792 1.963-4.749 1.337-1.013-0.66-1.235-2.591-0.613-5.301 0.427-1.848 1.209-3.907 2.277-6.027 0.267 0.584 0.547 1.168 0.84 1.751 1.9 3.728 4.227 6.969 6.547 9.127 1.848 1.72 3.565 2.617 4.98 2.617 0.467 0 0.907-0.1 1.301-0.297 1.527-0.78 2.187-2.947 1.864-6.1-0.299-2.951-1.413-6.547-3.139-10.133-0.147-0.303-0.512-0.431-0.813-0.288-0.307 0.147-0.44 0.513-0.293 0.816 3.587 7.469 3.84 13.587 1.827 14.613-2.12 1.084-7.232-3.14-11.187-10.907-0.453-0.873-0.849-1.733-1.2-2.573 0.453-0.811 0.933-1.627 1.46-2.44 0.527-0.805 1.075-1.584 1.632-2.327h0.525c0.72 0 1.501 0.013 2.312 0.064 8.707 0.457 14.633 3.413 14.512 5.779-0.053 1.020-1.232 2.051-3.233 2.827-0.312 0.128-0.469 0.48-0.347 0.795 0.093 0.24 0.32 0.389 0.568 0.389 0.077 0 0.152-0.013 0.223-0.040 2.54-0.987 3.933-2.341 4.013-3.907 0.093-1.773-1.56-3.48-4.667-4.8v-0.013zM10.773 12.6c-0.36 0.553-0.693 1.103-1.019 1.659-0.389-1.024-0.709-2.013-0.964-2.953 0.951-0.147 1.98-0.253 3.080-0.32-0.373 0.52-0.739 1.059-1.093 1.613v-0.013zM16.007 14.167c-1.013 0-1.833 0.821-1.833 1.833s0.821 1.833 1.833 1.833v0c1.013 0 1.833-0.821 1.833-1.833s-0.821-1.833-1.833-1.833v0z"></path>
</symbol>
<symbol id="icon-unity" viewBox="0 0 32 32">
<title>unity</title>
<path d="M26.533 25.6l-5.733-9.6 5.733-9.6 2.8 9.6-2.8 9.6zM13.867 24.667l-7.2-7.067h11.467l5.733 9.6-10-2.533zM13.867 7.2l10-2.533-5.733 9.6h-11.6c0 0.133 7.333-7.067 7.333-7.067zM28.533 0l-13.067 3.333-2 3.333h-3.867l-9.6 9.333 9.6 9.333h3.867l1.867 3.333 13.067 3.333 3.467-12.667-1.867-3.333 2-3.333-3.467-12.667z"></path>
</symbol>
<symbol id="icon-php" viewBox="0 0 32 32">
<title>php</title>
<path fill="#777bb4" style="fill: var(--color6, #777bb4)" d="M9.347 13.609h-1.259l-0.687 3.531h1.117c0.741 0 1.293-0.14 1.656-0.419 0.363-0.28 0.607-0.745 0.733-1.399 0.123-0.627 0.067-1.069-0.165-1.327-0.233-0.257-0.697-0.387-1.396-0.387zM16 7.584c-8.836 0-16 3.768-16 8.416s7.164 8.417 16 8.417 16-3.769 16-8.417c0-4.648-7.164-8.416-16-8.416zM11.653 17.519c-0.348 0.333-0.767 0.584-1.223 0.735-0.448 0.144-1.020 0.219-1.713 0.219h-1.575l-0.436 2.241h-1.837l1.64-8.435h3.533c1.063 0 1.837 0.279 2.325 0.837 0.488 0.557 0.635 1.336 0.44 2.336-0.082 0.425-0.223 0.803-0.416 1.148l0.010-0.019c-0.191 0.34-0.44 0.653-0.748 0.937zM17.019 18.472l0.724-3.732c0.084-0.424 0.052-0.715-0.091-0.868-0.143-0.155-0.448-0.232-0.916-0.232h-1.456l-0.939 4.833h-1.824l1.64-8.436h1.823l-0.436 2.243h1.624c1.023 0 1.727 0.179 2.115 0.535s0.504 0.933 0.351 1.732l-0.763 3.925h-1.852zM27.148 15.452c-0.080 0.425-0.221 0.803-0.416 1.148l0.010-0.018c-0.191 0.34-0.44 0.653-0.748 0.937-0.338 0.323-0.746 0.574-1.2 0.728l-0.023 0.007c-0.448 0.144-1.020 0.219-1.715 0.219h-1.573l-0.436 2.243h-1.837l1.64-8.435h3.532c1.063 0 1.837 0.279 2.325 0.837 0.488 0.556 0.636 1.335 0.441 2.335zM23.688 13.609h-1.257l-0.688 3.531h1.117c0.743 0 1.295-0.14 1.656-0.419 0.363-0.28 0.607-0.745 0.735-1.399 0.123-0.627 0.065-1.069-0.167-1.327s-0.699-0.387-1.396-0.387z"></path>
</symbol>
<symbol id="icon-jquery" viewBox="0 0 32 32">
<title>jquery</title>
<path fill="#0769ad" style="fill: var(--color7, #0769ad)" d="M2.045 7.832c-2.831 4.067-2.48 9.356-0.316 13.675 0.049 0.105 0.104 0.205 0.157 0.305 0.031 0.069 0.065 0.133 0.103 0.199 0.017 0.037 0.041 0.076 0.063 0.111 0.035 0.069 0.072 0.136 0.108 0.203l0.209 0.353c0.039 0.065 0.076 0.129 0.12 0.195 0.073 0.125 0.16 0.249 0.236 0.375 0.035 0.052 0.067 0.104 0.105 0.156 0.148 0.232 0.284 0.425 0.428 0.612l-0.015-0.020c0.104 0.143 0.208 0.281 0.32 0.42 0.036 0.051 0.076 0.101 0.113 0.152l0.295 0.359c0.036 0.041 0.072 0.089 0.111 0.132 0.131 0.157 0.269 0.311 0.408 0.465 0 0.003 0.004 0.005 0.007 0.009 0.172 0.217 0.358 0.409 0.56 0.582l0.006 0.005c0.107 0.109 0.213 0.219 0.327 0.325l0.135 0.129c0.148 0.139 0.296 0.277 0.452 0.411 0.003 0 0.004 0.003 0.007 0.004l0.076 0.067c0.136 0.119 0.273 0.237 0.413 0.347l0.167 0.14c0.113 0.091 0.231 0.177 0.347 0.267l0.181 0.139c0.124 0.093 0.256 0.185 0.383 0.276 0.047 0.033 0.093 0.067 0.141 0.097l0.039 0.031 0.375 0.247 0.16 0.107c0.196 0.125 0.391 0.244 0.584 0.361 0.056 0.028 0.112 0.059 0.164 0.091 0.144 0.083 0.293 0.167 0.439 0.244 0.080 0.045 0.163 0.084 0.245 0.125 0.1 0.056 0.204 0.111 0.311 0.167 0.029 0.009 0.054 0.019 0.077 0.032l-0.002-0.001c0.044 0.020 0.085 0.041 0.128 0.063 0.16 0.080 0.327 0.156 0.5 0.232 0.032 0.013 0.067 0.027 0.101 0.045 0.192 0.084 0.384 0.164 0.583 0.243 0.045 0.013 0.093 0.036 0.14 0.053 0.18 0.068 0.365 0.137 0.548 0.203l0.067 0.024c0.204 0.069 0.405 0.136 0.612 0.2 0.048 0.013 0.097 0.031 0.148 0.044 0.212 0.064 0.417 0.14 0.631 0.181 13.68 2.493 17.656-8.225 17.656-8.225-3.34 4.349-9.267 5.496-14.88 4.22-0.208-0.048-0.416-0.115-0.625-0.176-0.382-0.11-0.633-0.192-0.882-0.28l0.126 0.039-0.083-0.032c-0.181-0.061-0.356-0.129-0.533-0.197-0.034-0.015-0.082-0.033-0.132-0.050l-0.015-0.004c-0.196-0.079-0.387-0.16-0.576-0.244-0.041-0.013-0.076-0.032-0.117-0.048-0.35-0.155-0.508-0.231-0.665-0.308l0.184 0.081c-0.049-0.021-0.093-0.044-0.141-0.069-0.125-0.059-0.251-0.125-0.373-0.189-0.114-0.054-0.196-0.097-0.276-0.142l0.027 0.014c-0.151-0.080-0.301-0.167-0.452-0.249-0.045-0.032-0.097-0.059-0.149-0.088-0.289-0.169-0.479-0.288-0.668-0.409l0.084 0.050c-0.064-0.040-0.115-0.075-0.165-0.111l0.008 0.006c-0.172-0.106-0.308-0.197-0.44-0.291l0.024 0.017c-0.047-0.031-0.089-0.064-0.137-0.097-0.17-0.118-0.298-0.211-0.424-0.306l0.032 0.023c-0.056-0.045-0.116-0.088-0.176-0.133-0.117-0.092-0.236-0.18-0.353-0.277l-0.157-0.125c-0.174-0.14-0.319-0.263-0.461-0.388l0.016 0.013c-0.015-0.014-0.031-0.028-0.048-0.039l-0.001-0.001-0.463-0.421-0.133-0.125c-0.109-0.111-0.221-0.217-0.333-0.327l-0.129-0.133c-0.138-0.137-0.273-0.278-0.404-0.421l-0.008-0.009-0.020-0.021c-0.141-0.155-0.279-0.312-0.417-0.472-0.036-0.041-0.069-0.085-0.107-0.129l-0.301-0.369c-0.105-0.131-0.254-0.326-0.4-0.522l-0.054-0.075c-3.113-4.251-4.24-10.117-1.748-14.929zM10.828 4.407c-2.052 2.945-1.936 6.884-0.339 9.999 0.296 0.584 0.596 1.078 0.928 1.547l-0.025-0.038c0.307 0.44 0.645 0.96 1.056 1.315 0.143 0.163 0.297 0.32 0.459 0.479l0.12 0.12c0.152 0.147 0.308 0.291 0.467 0.433l0.020 0.017c0.16 0.141 0.34 0.29 0.524 0.435l0.028 0.021c0.045 0.031 0.084 0.067 0.128 0.097 0.187 0.144 0.375 0.283 0.569 0.42l0.020 0.012c0.083 0.060 0.171 0.115 0.264 0.173 0.037 0.024 0.080 0.056 0.12 0.080 0.141 0.091 0.28 0.176 0.423 0.263 0.023 0.009 0.043 0.021 0.064 0.031 0.12 0.073 0.251 0.144 0.376 0.209 0.044 0.027 0.087 0.047 0.132 0.072 0.089 0.044 0.177 0.091 0.263 0.136l0.043 0.019c0.18 0.088 0.364 0.171 0.544 0.253 0.045 0.017 0.084 0.032 0.123 0.051 0.148 0.064 0.299 0.125 0.447 0.183 0.067 0.023 0.129 0.049 0.192 0.069 0.136 0.051 0.279 0.097 0.413 0.144l0.187 0.060c0.195 0.060 0.392 0.139 0.597 0.172 10.56 1.751 13.005-6.383 13.005-6.383-2.201 3.168-6.461 4.677-11.001 3.499-0.277-0.071-0.476-0.13-0.673-0.195l0.076 0.022c-0.064-0.017-0.12-0.037-0.181-0.056-0.139-0.048-0.281-0.095-0.416-0.145l-0.192-0.072c-0.149-0.060-0.301-0.116-0.447-0.18-0.045-0.020-0.087-0.033-0.121-0.053-0.187-0.084-0.375-0.167-0.556-0.256l-0.275-0.143-0.159-0.080c-0.123-0.064-0.236-0.131-0.353-0.2-0.033-0.016-0.060-0.031-0.086-0.047l0.003 0.002c-0.141-0.088-0.288-0.173-0.423-0.264-0.045-0.025-0.087-0.056-0.129-0.083l-0.277-0.181c-0.192-0.133-0.38-0.277-0.569-0.416-0.043-0.039-0.084-0.071-0.125-0.105-1.996-1.569-3.571-3.715-4.317-6.144-0.787-2.525-0.613-5.357 0.745-7.656zM18.213 1.845c-1.211 1.776-1.327 3.981-0.493 5.94 0.885 2.080 2.696 3.713 4.805 4.487 0.087 0.033 0.171 0.061 0.26 0.093l0.117 0.036c0.123 0.039 0.247 0.084 0.373 0.112 5.835 1.125 7.413-2.996 7.839-3.601-1.389 1.995-3.719 2.473-6.576 1.779-0.279-0.070-0.509-0.143-0.732-0.228l0.044 0.015c-0.337-0.119-0.609-0.233-0.873-0.361l0.050 0.022c-0.55-0.269-1.022-0.562-1.462-0.896l0.021 0.016c-2.56-1.939-4.145-5.64-2.476-8.655z"></path>
</symbol>
<symbol id="icon-vim" viewBox="0 0 32 32">
<title>vim</title>
<path fill="#019733" style="fill: var(--color8, #019733)" d="M32 15.981h-0.036l-5.757-5.757 5.737-5.885v-2.391l-0.865-0.864h-10.931l-0.88 0.807v1.393l-3.248-3.248v-0.036l-0.020 0.019-0.019-0.019v0.036l-1.72 1.721-0.717-0.719h-10.831l-0.851 0.923v2.513l0.821 0.821h0.96v7.080l-3.608 3.607h-0.036l0.019 0.017-0.019 0.019h0.036l3.608 3.608v8.623l1.209 0.697h3.096l2.476-2.539 5.555 5.555v0.037l0.020-0.019 0.019 0.019v-0.037l3.347-3.345h0.647c0.148 0 0.281-0.093 0.333-0.239l0.195-0.568c0.037-0.112 0.016-0.229-0.049-0.319l1.949-1.949-0.816 2.616c-0.057 0.188 0.048 0.385 0.236 0.443 0.033 0.011 0.069 0.016 0.104 0.016h2.432c0.141-0.001 0.268-0.085 0.324-0.217l0.22-0.525c0.033-0.087 0.032-0.184-0.005-0.271-0.036-0.087-0.107-0.155-0.195-0.189-0.039-0.016-0.083-0.025-0.129-0.027h-0.1l1.12-3.525h1.643l-1.355 4.295c-0.057 0.188 0.048 0.385 0.235 0.443 0.033 0.011 0.069 0.016 0.105 0.016h2.669c0.147 0 0.276-0.088 0.331-0.227l0.219-0.571c0.068-0.184-0.028-0.387-0.211-0.455-0.039-0.015-0.080-0.023-0.121-0.023h-0.193l1.508-4.897c0.036-0.109 0.016-0.231-0.052-0.32l-0.5-0.672-0.004-0.007c-0.068-0.085-0.169-0.136-0.279-0.136h-1.915c-0.095 0-0.188 0.040-0.253 0.108l-0.533 0.585h-0.832l-0.056-0.061 5.927-5.927h0.037l-0.019-0.015 0.019-0.019zM13.117 28.185l2.105-6.012h-0.668l0.396-0.405h2.212l-2.084 6.073h0.831l-0.105 0.344h-2.687zM18.044 18.164l0.2 0.201-0.359 1.229-0.3 0.301h-1.292l-0.241-0.241 0.415-1.161 0.384-0.329h1.193zM7.453 27.772h-2.284l-0.349-0.2v-23.451h-1.648l-0.133-0.133v-1.568l0.191-0.205h9.828l0.284 0.285v1.477l-0.189 0.231h-1.439v11.584l11.743-11.584h-2.781l-0.233-0.251v-1.551l0.161-0.148h9.987l0.176 0.177v1.427l-13.46 13.804h-0.497c-0.020-0.001-0.037 0-0.056 0.001l-0.027 0.004c-0.060 0.013-0.115 0.040-0.159 0.080l-0.457 0.393-0.005 0.004c-0.044 0.041-0.079 0.092-0.097 0.148l-0.395 1.107-8.159 8.368zM27.144 22.503l0.632-0.692h1.779l0.412 0.553-1.687 5.476h0.657l-0.107 0.279h-2.377l1.499-4.752h-2.687l-1.436 4.521h0.565l-0.097 0.232h-2.14l1.476-4.731h-2.795l-1.416 4.452h0.581l-0.096 0.279h-2.215l2.019-5.947h-0.781l0.121-0.361h2.2l0.692 0.716h1.208l0.655-0.739h1.415l0.652 0.713h1.271z"></path>
</symbol>
<symbol id="icon-visualstudiocode" viewBox="0 0 32 32">
<title>visualstudiocode</title>
<path fill="#007acc" style="fill: var(--color9, #007acc)" d="M32 3.333v25.333l-8 3.333-24-7.333v-0.748l24 2.060v-25.979zM1.333 17.481l4.513-4.148-4.513-4.148 1.891-1.103 4.58 3.451 8.196-7.533 4 1.941v14.784l-4 1.941-8.196-7.533-4.579 3.452zM10.192 13.333l5.808 4.377v-8.755z"></path>
</symbol>
<symbol id="icon-csswizardry" viewBox="0 0 32 32">
<title>csswizardry</title>
<path fill="#f43059" style="fill: var(--color10, #f43059)" d="M0.040 21.904v-20.413c0-0.824 0.667-1.491 1.489-1.491h28.871c0.832 0 1.493 0.667 1.493 1.493v19.68c-0.893-0.547-1.947-0.821-3.143-0.821-1.672 0-2.94 0.4-3.805 1.195-0.867 0.797-1.293 1.771-1.293 2.967 0 1.293 0.44 2.253 1.333 2.867 0.52 0.38 1.48 0.72 2.853 1.016l1.4 0.32c0.84 0.177 1.427 0.4 1.813 0.613 0.373 0.244 0.573 0.583 0.573 1.020 0 0.755-0.387 1.273-1.16 1.531l-0.040 0.021h-2.947c-0.383-0.139-0.68-0.339-0.92-0.6-0.24-0.299-0.4-0.733-0.48-1.351h-2.64c0 0.755 0.137 1.393 0.44 1.973h-2.24c0.253-0.52 0.4-1.097 0.4-1.756 0-1.173-0.4-2.067-1.181-2.688-0.499-0.396-1.253-0.713-2.251-0.956l-2.293-0.536c-0.88-0.187-1.453-0.373-1.733-0.533-0.413-0.24-0.613-0.6-0.613-1.053 0-0.507 0.213-0.907 0.627-1.187 0.44-0.28 1-0.413 1.72-0.413 0.653 0 1.173 0.12 1.613 0.347 0.659 0.341 1 0.92 1.053 1.716h2.667c-0.040-1.395-0.553-2.471-1.533-3.205-0.992-0.733-2.167-1.113-3.56-1.113-1.673 0-2.927 0.4-3.804 1.173-0.853 0.777-1.293 1.773-1.293 2.947 0 1.293 0.44 2.251 1.333 2.867 0.536 0.36 1.493 0.697 2.867 1.013l1.393 0.32c0.813 0.18 1.413 0.38 1.813 0.62 0.373 0.24 0.573 0.573 0.573 1.013 0 0.76-0.4 1.253-1.173 1.533h-2.987c-0.379-0.141-0.693-0.341-0.92-0.62-0.24-0.293-0.413-0.752-0.493-1.352h-2.689c0 0.744 0.14 1.4 0.427 1.973h-2.787c0.44-0.693 0.737-1.493 0.884-2.387h-2.737c-0.187 0.68-0.416 1.197-0.7 1.533-0.347 0.44-0.8 0.72-1.36 0.86h-1.636c-0.6-0.14-1.116-0.477-1.533-1.013-0.619-0.744-0.917-1.859-0.917-3.333 0-1.493 0.307-2.627 0.88-3.44 0.6-0.817 1.373-1.213 2.387-1.213 1 0 1.733 0.28 2.253 0.859 0.28 0.32 0.52 0.8 0.693 1.435h2.773c-0.040-0.824-0.347-1.653-0.915-2.48-1.029-1.467-2.659-2.2-4.885-2.2-1.547 0-2.845 0.48-3.88 1.413l-0.067-0.147zM31.899 26.752v-2.072h-0.688c-0.047-0.796-0.4-1.363-1.044-1.699-0.417-0.219-0.956-0.331-1.591-0.331-0.72 0-1.273 0.147-1.693 0.429-0.416 0.287-0.637 0.691-0.637 1.203 0 0.473 0.221 0.827 0.636 1.060 0.293 0.14 0.867 0.339 1.747 0.539l2.293 0.547c0.4 0.080 0.747 0.2 1.067 0.307l-0.067 0.040z"></path>
</symbol>
<symbol id="icon-css3" viewBox="0 0 32 32">
<title>css3</title>
<path fill="#1572b6" style="fill: var(--color11, #1572b6)" d="M2 0h28l-2.547 28.751-11.484 3.249-11.42-3.251-2.549-28.749zM24.787 5.884l-17.573-0.004 0.284 3.496 13.5 0.003-0.34 3.621h-8.853l0.32 3.431h8.243l-0.488 4.697-3.88 1.072-3.941-1.080-0.251-2.813h-3.48l0.387 5.14 7.287 2.271 7.164-2.040 1.623-17.792z"></path>
</symbol>
<symbol id="icon-css31" viewBox="0 0 32 32">
<title>css31</title>
<path fill="#1572b6" style="fill: var(--color11, #1572b6)" d="M2 0h28l-2.547 28.751-11.484 3.249-11.42-3.251-2.549-28.749zM24.787 5.884l-17.573-0.004 0.284 3.496 13.5 0.003-0.34 3.621h-8.853l0.32 3.431h8.243l-0.488 4.697-3.88 1.072-3.941-1.080-0.251-2.813h-3.48l0.387 5.14 7.287 2.271 7.164-2.040 1.623-17.792z"></path>
</symbol>
<symbol id="icon-html5" viewBox="0 0 32 32">
<title>html5</title>
<path fill="#e34f26" style="fill: var(--color12, #e34f26)" d="M2 0h28l-2.547 28.751-11.484 3.249-11.419-3.251-2.551-28.749zM11.375 13l-0.309-3.624 13.412 0.004 0.307-3.496-17.568-0.004 0.931 10.68h12.168l-0.435 4.568-3.88 1.072-3.94-1.080-0.251-2.813h-3.479l0.44 5.561 7.229 1.933 7.172-1.924 0.992-10.876h-12.789z"></path>
</symbol>
<symbol id="icon-terminal" viewBox="0 0 32 32">
<title>terminal</title>
<path d="M0 2v28h32v-28h-32zM30 28h-28v-24h28v24zM28 6h-24v20h24v-20zM14 16h-2v2h-2v2h-2v-2h2v-2h2v-2h-2v-2h-2v-2h2v2h2v2h2v2zM22 20h-6v-2h6v2z"></path>
</symbol>
<symbol id="icon-html-five" viewBox="0 0 32 32">
<title>html-five</title>
<path d="M1.892 0l2.567 28.801 11.524 3.199 11.554-3.204 2.572-28.796h-28.216zM24.52 9.42h-13.517l0.322 3.617h12.874l-0.97 10.844-7.245 2.008-7.237-2.008-0.495-5.547h3.547l0.252 2.82 3.933 1.060 0.009-0.002 3.935-1.062 0.408-4.58h-12.242l-0.953-10.681h17.694l-0.316 3.532z"></path>
</symbol>
<symbol id="icon-html-five2" viewBox="0 0 32 32">
<title>html-five2</title>
<path d="M1.892 0l2.567 28.801 11.524 3.199 11.554-3.204 2.572-28.796h-28.216zM25.336 26.963l-9.288 2.574v0.015l-0.024-0.007-0.024 0.007v-0.015l-9.288-2.574-2.195-24.609h23.015l-2.195 24.609zM20.336 16.569l-0.408 4.58-3.944 1.065-3.933-1.060-0.252-2.82h-3.547l0.495 5.547 7.252 2.006 7.229-2.006 0.97-10.844h-12.874l-0.322-3.617h13.517l0.316-3.532h-17.694l0.953 10.681z"></path>
</symbol>
<symbol id="icon-css32" viewBox="0 0 32 32">
<title>css32</title>
<path d="M4.762 1.516l-1.074 5.373h21.867l-0.684 3.47h-21.881l-1.059 5.372h21.865l-1.219 6.127-8.813 2.919-7.638-2.919 0.523-2.658h-5.372l-1.278 6.448 12.632 4.834 14.563-4.834 4.805-24.133z"></path>
</symbol>
</defs>
</svg>
