<?xml version="1.0" encoding="utf-8"?>
<!-- Svg Vector Icons : http://www.onlinewebfonts.com/icon -->
<!DOCTYPE svg PUBLIC "-//W3C//DTD SVG 1.1//EN" "http://www.w3.org/Graphics/SVG/1.1/DTD/svg11.dtd">
<svg version="1.1" xmlns="http://www.w3.org/2000/svg" xmlns:xlink="http://www.w3.org/1999/xlink" x="0px" y="0px" viewBox="0 0 1000 1000" enable-background="new 0 0 1000 1000" xml:space="preserve">
<metadata> Svg Vector Icons : http://www.onlinewebfonts.com/icon </metadata>
<g><g transform="translate(0.000000,511.000000) scale(0.100000,-0.100000)"><path d="M1066.2,3335.3c-128.2-40.2-191.3-82.3-285.1-185.6c-155-174.1-145.4,32.5-145.4-2871.9v-2579.2H367.9H100v-101.4c0-325.3,218.1-623.7,520.4-709.8c91.8-28.7,543.4-30.6,4417.8-26.8l4312.6,5.7l126.3,61.2c248.7,122.4,401.8,354,415.2,621.8l7.7,149.2h-269.8h-269.8l-3.8,2617.4l-5.7,2615.5l-51.7,97.6c-72.7,139.7-204.7,248.7-355.9,294.6c-120.5,38.3-177.9,38.3-3962.5,36.3C1942.5,3360.2,1127.5,3354.5,1066.2,3335.3z M5086.1,3126.8c38.3-32.5,51.7-63.1,51.7-109.1s-13.4-76.5-51.7-109.1c-65-53.6-124.4-55.5-191.3-3.8c-38.3,30.6-49.7,55.5-49.7,112.9C4845,3151.6,4982.8,3214.8,5086.1,3126.8z M8901.2,339.1v-2334.2H4998.1H1094.9V339.1v2334.2h3903.2h3903.2V339.1z"/></g></g>
</svg>